<?xml version="1.0" encoding="UTF-8" standalone="no"?>
<svg
   xmlns:dc="http://purl.org/dc/elements/1.1/"
   xmlns:cc="http://creativecommons.org/ns#"
   xmlns:rdf="http://www.w3.org/1999/02/22-rdf-syntax-ns#"
   xmlns:svg="http://www.w3.org/2000/svg"
   xmlns="http://www.w3.org/2000/svg"
   xmlns:sodipodi="http://sodipodi.sourceforge.net/DTD/sodipodi-0.dtd"
   xmlns:inkscape="http://www.inkscape.org/namespaces/inkscape"
   inkscape:version="1.0 (4035a4fb49, 2020-05-01)"
   sodipodi:docname="Donald Trump Save America logo.svg"
   xml:space="preserve"
   viewBox="0 0 434.37469 198.36861"
   y="0px"
   x="0px"
   id="Layer_1"
   version="1.1"
   width="434.37469"
   height="198.36861"><metadata
   id="metadata107"><rdf:RDF><cc:Work
       rdf:about=""><dc:format>image/svg+xml</dc:format><dc:type
         rdf:resource="http://purl.org/dc/dcmitype/StillImage" /><dc:title></dc:title></cc:Work></rdf:RDF></metadata><defs
   id="defs105">
	
	
	

		
		
		
	</defs><sodipodi:namedview
   inkscape:current-layer="Layer_1"
   inkscape:window-maximized="1"
   inkscape:window-y="-8"
   inkscape:window-x="-8"
   inkscape:cy="145.17646"
   inkscape:cx="186.22911"
   inkscape:zoom="2.0000001"
   showgrid="false"
   id="namedview103"
   inkscape:window-height="1017"
   inkscape:window-width="1920"
   inkscape:pageshadow="2"
   inkscape:pageopacity="0"
   guidetolerance="10"
   gridtolerance="10"
   objecttolerance="10"
   borderopacity="1"
   bordercolor="#666666"
   pagecolor="#ffffff"
   inkscape:document-rotation="0"
   lock-margins="false"
   fit-margin-top="2"
   fit-margin-left="9"
   fit-margin-right="9"
   fit-margin-bottom="9" />
<style
   id="style2"
   type="text/css">
	.st0{fill:#00000;}
</style>

<g
   style="stroke-width:0.480337"
   id="g1729"
   transform="matrix(2.0818734,0,0,2.0818734,8.5836253,1.375438)"><g
     id="g16"
     style="fill:#c80f2b;fill-opacity:1;stroke-width:0.480337">
			<g
   id="g14"
   style="fill:#c80f2b;fill-opacity:1;stroke-width:0.480337">
				<polygon
   class="st0"
   points="116.7,6.1 117.9,9.7 114.8,7.5 111.7,9.7 112.9,6.1 109.8,3.9 113.6,3.9 114.8,0.3 116,3.9 119.8,3.9 "
   id="polygon4"
   style="fill:#c80f2b;fill-opacity:1;stroke-width:0.480337" />
				<polygon
   class="st0"
   points="130.7,6.1 131.9,9.7 128.8,7.5 125.7,9.7 126.9,6.1 123.8,3.9 127.6,3.9 128.8,0.3 130,3.9 133.8,3.9 "
   id="polygon6"
   style="fill:#c80f2b;fill-opacity:1;stroke-width:0.480337" />
				<polygon
   class="st0"
   points="102.7,6.1 103.9,9.7 100.8,7.5 97.7,9.7 98.9,6.1 95.8,3.9 99.6,3.9 100.8,0.3 102,3.9 105.8,3.9 "
   id="polygon8"
   style="fill:#c80f2b;fill-opacity:1;stroke-width:0.480337" />
				<polygon
   class="st0"
   points="88.3,6.1 89.5,9.7 86.4,7.5 83.3,9.7 84.5,6.1 81.4,3.9 85.2,3.9 86.4,0.3 87.6,3.9 91.4,3.9 "
   id="polygon10"
   style="fill:#c80f2b;fill-opacity:1;stroke-width:0.480337" />
				<polygon
   class="st0"
   points="73.9,6.1 75,9.7 72,7.5 68.9,9.7 70.1,6.1 67,3.9 70.8,3.9 72,0.3 73.1,3.9 76.9,3.9 "
   id="polygon12"
   style="fill:#c80f2b;fill-opacity:1;stroke-width:0.480337" />
			</g>
		</g><g
     id="g20"
     style="fill:#151f6d;fill-opacity:1;stroke-width:0.480337">
			<polygon
   class="st0"
   points="126,88.7 198.7,88.7 198.7,5.8 145,5.8 145,4.2 200.2,4.2 200.2,90.3 126,90.3 "
   id="polygon18"
   style="fill:#151f6d;fill-opacity:1;stroke-width:0.480337" />
		</g><g
     id="g24"
     style="fill:#151f6d;fill-opacity:1;stroke-width:0.480337">
			<polygon
   class="st0"
   points="55.4,5.8 1.8,5.8 1.8,88.7 133.8,88.7 133.8,90.3 0.2,90.3 0.2,4.2 55.4,4.2 "
   id="polygon22"
   style="fill:#151f6d;fill-opacity:1;stroke-width:0.480337" />
		</g><g
     style="fill:#151f6d;fill-opacity:1;stroke-width:0.480337"
     id="g36">
		<path
   style="fill:#151f6d;fill-opacity:1;stroke-width:0.480337"
   id="path28"
   d="m 69.7,33.1 1.5,-1.8 c 1.4,1.2 2.8,1.9 4.6,1.9 1.6,0 2.6,-0.7 2.6,-1.8 v 0 c 0,-1 -0.6,-1.6 -3.3,-2.2 -3.1,-0.7 -4.9,-1.6 -4.9,-4.3 v 0 c 0,-2.5 2.1,-4.2 5,-4.3 2.1,0 3.8,0.6 5.3,1.8 l -1.4,1.9 c -1.3,-1 -2.6,-1.5 -4,-1.5 -1.5,0 -2.4,0.8 -2.4,1.7 v 0 c 0,1.1 0.7,1.6 3.5,2.3 3.1,0.7 4.7,1.8 4.7,4.2 v 0 c 0,2.7 -2.1,4.4 -5.2,4.4 -2.2,0 -4.3,-0.7 -6,-2.3 z"
   class="st0" />
		<path
   style="fill:#151f6d;fill-opacity:1;stroke-width:0.480337"
   id="path30"
   d="m 90.8,20.5 h 2.4 l 6.5,14.6 H 97 l -1.5,-3.5 h -6.9 l -1.5,3.5 h -2.6 z m 3.7,8.8 -2.5,-5.8 -2.5,5.8 z"
   class="st0" />
		<path
   style="fill:#151f6d;fill-opacity:1;stroke-width:0.480337"
   id="path32"
   d="m 100.8,20.5 h 2.8 l 4.5,11.2 4.3,-11.2 h 2.8 l -6,14.7 H 107 Z"
   class="st0" />
		<path
   style="fill:#151f6d;fill-opacity:1;stroke-width:0.480337"
   id="path34"
   d="m 119.8,20.4 10.8,-0.1 v 2.3 h -8.2 v 3.8 h 7.3 v 2.3 h -7.3 v 3.9 h 8.3 v 2.3 L 119.8,35 Z"
   class="st0" />
	</g><g
     style="fill:#c80f2b;fill-opacity:1;stroke-width:0.480337"
     id="g52">
		<path
   style="fill:#c80f2b;fill-opacity:1;stroke-width:0.480337"
   id="path38"
   d="m 23.2,41 h 7.3 l 9.4,22 h -8 L 30.7,60.1 H 23 l -1.1,3 h -7.8 z m 5.6,13.9 -2,-5.3 -2,5.3 z"
   class="st0" />
		<path
   style="fill:#c80f2b;fill-opacity:1;stroke-width:0.480337"
   id="path40"
   d="m 43.7,41 h 7.7 l 4.7,7.7 4.7,-7.7 h 7.6 l 0.1,21.9 H 61.2 V 52 l -5,7.8 H 56 l -5,-7.7 v 10.8 h -7.2 z"
   class="st0" />
		<path
   style="fill:#c80f2b;fill-opacity:1;stroke-width:0.480337"
   id="path42"
   d="m 74.1,40.9 18.7,-0.1 v 6 l -11.5,0.1 v 2.2 L 92,49 v 5.3 l -10.7,0.1 v 2.4 L 93,56.7 v 6 l -18.9,0.1 z"
   class="st0" />
		<path
   style="fill:#c80f2b;fill-opacity:1;stroke-width:0.480337"
   id="path44"
   d="m 98,40.7 10.7,-0.1 c 3.9,0 6.4,0.9 7.9,2.5 1.3,1.3 2,2.9 2,5.2 v 0.1 c 0,3.2 -1.6,5.4 -4.3,6.7 l 5.2,7.4 h -8.4 l -4.2,-6.2 h -1.6 v 6.3 H 98 Z m 10.6,10.4 c 1.8,0 2.8,-0.8 2.8,-2.1 v -0.1 c 0,-1.4 -1.1,-2.1 -2.8,-2.1 h -3.2 v 4.3 z"
   class="st0" />
		<path
   style="fill:#c80f2b;fill-opacity:1;stroke-width:0.480337"
   id="path46"
   d="m 123.6,40.6 h 7.3 l 0.1,21.9 h -7.3 z"
   class="st0" />
		<path
   style="fill:#c80f2b;fill-opacity:1;stroke-width:0.480337"
   id="path48"
   d="m 136.2,51.6 v 0 c 0,-6.6 5,-11.5 11.6,-11.6 4.8,0 8.1,2.3 10,5.7 l -6,3.6 c -0.8,-1.6 -2,-2.7 -4,-2.6 -2.5,0 -4.1,2.2 -4.1,4.8 v 0.1 c 0,2.9 1.7,4.8 4.1,4.8 2.1,0 3.2,-1.1 4.1,-2.8 L 158,57 c -1.8,3.3 -4.9,6 -10.3,6 -6.1,-0.1 -11.4,-4.6 -11.5,-11.4 z"
   class="st0" />
		<path
   style="fill:#c80f2b;fill-opacity:1;stroke-width:0.480337"
   id="path50"
   d="m 169.8,40.2 h 7.3 l 9.4,22 h -8 l -1.2,-2.9 h -7.7 l -1.1,3 h -7.8 z m 5.6,13.9 -2,-5.3 -2,5.3 z"
   class="st0" />
	</g><g
     id="g100"
     style="fill:#151f6d;fill-opacity:1;stroke-width:0.480337">
	<path
   class="st0"
   d="m 34.5,69.3 h 2.1 c 1.2,0 2,0.7 2,1.7 v 0 c 0,1.2 -0.9,1.8 -2.1,1.8 h -1 v 1.7 h -0.9 z m 2,2.7 c 0.7,0 1.1,-0.4 1.1,-0.9 v 0 c 0,-0.6 -0.4,-0.9 -1.1,-0.9 h -1.1 v 1.9 z"
   id="path56"
   style="fill:#151f6d;fill-opacity:1;stroke-width:0.480337" />
	<path
   class="st0"
   d="m 40,69.3 h 2.3 c 0.7,0 1.2,0.2 1.5,0.5 0.3,0.3 0.4,0.7 0.4,1.1 v 0 c 0,0.9 -0.5,1.4 -1.2,1.6 l 1.4,2 H 43.3 L 42,72.7 h -1.1 v 1.8 H 40 Z m 2.3,2.6 c 0.7,0 1.1,-0.3 1.1,-0.9 v 0 c 0,-0.6 -0.4,-0.9 -1.1,-0.9 H 41 v 1.8 z"
   id="path58"
   style="fill:#151f6d;fill-opacity:1;stroke-width:0.480337" />
	<path
   class="st0"
   d="m 46,69.3 h 3.9 v 0.8 h -3 v 1.4 h 2.6 v 0.8 h -2.6 v 1.4 h 3 v 0.8 H 46 Z"
   id="path60"
   style="fill:#151f6d;fill-opacity:1;stroke-width:0.480337" />
	<path
   class="st0"
   d="M 51.2,73.7 51.7,73 c 0.5,0.4 1,0.7 1.7,0.7 0.6,0 0.9,-0.3 0.9,-0.7 v 0 c 0,-0.4 -0.2,-0.6 -1.2,-0.8 -1.1,-0.3 -1.7,-0.6 -1.7,-1.5 v 0 c 0,-0.9 0.7,-1.5 1.8,-1.5 0.8,0 1.4,0.2 1.9,0.6 l -0.5,0.7 C 54.1,70.2 53.7,70 53.2,70 c -0.5,0 -0.9,0.3 -0.8,0.6 v 0 c 0,0.4 0.2,0.6 1.2,0.8 1.1,0.3 1.7,0.7 1.7,1.5 v 0 c 0,1 -0.8,1.6 -1.9,1.6 -0.8,0 -1.5,-0.3 -2.2,-0.8 z"
   id="path62"
   style="fill:#151f6d;fill-opacity:1;stroke-width:0.480337" />
	<path
   class="st0"
   d="m 57,69.2 h 0.9 v 5.2 H 57 Z"
   id="path64"
   style="fill:#151f6d;fill-opacity:1;stroke-width:0.480337" />
	<path
   class="st0"
   d="m 59.8,69.2 h 1.9 c 1.6,0 2.8,1.1 2.8,2.6 v 0 c 0,1.5 -1.1,2.6 -2.8,2.6 h -1.9 z m 2,4.4 c 1.1,0 1.8,-0.7 1.8,-1.8 v 0 c 0,-1 -0.7,-1.8 -1.8,-1.8 h -1 v 3.5 z"
   id="path66"
   style="fill:#151f6d;fill-opacity:1;stroke-width:0.480337" />
	<path
   class="st0"
   d="m 66.2,69.1 h 3.9 v 0.8 h -3 v 1.4 h 2.6 v 0.8 h -2.6 v 1.4 h 3 v 0.8 h -3.9 z"
   id="path68"
   style="fill:#151f6d;fill-opacity:1;stroke-width:0.480337" />
	<path
   class="st0"
   d="m 71.8,69.1 h 0.9 l 2.8,3.6 v -3.6 h 0.9 v 5.2 h -0.8 l -2.9,-3.7 v 3.7 h -0.9 z"
   id="path70"
   style="fill:#151f6d;fill-opacity:1;stroke-width:0.480337" />
	<path
   class="st0"
   d="m 79.6,69.9 h -1.7 v -0.8 h 4.2 v 0.8 h -1.7 v 4.4 h -0.9 z"
   id="path72"
   style="fill:#151f6d;fill-opacity:1;stroke-width:0.480337" />
	<path
   class="st0"
   d="m 86.5,69 h 1.9 c 1.6,0 2.8,1.1 2.8,2.6 v 0 c 0,1.5 -1.1,2.6 -2.8,2.6 h -1.9 z m 1.9,4.4 c 1.1,0 1.8,-0.7 1.8,-1.8 v 0 c 0,-1 -0.7,-1.8 -1.8,-1.8 h -1 v 3.5 z"
   id="path74"
   style="fill:#151f6d;fill-opacity:1;stroke-width:0.480337" />
	<path
   class="st0"
   d="m 92.6,71.6 v 0 c 0,-1.5 1.1,-2.7 2.7,-2.7 1.6,0 2.7,1.2 2.7,2.7 v 0 c 0,1.5 -1.1,2.7 -2.7,2.7 -1.5,0 -2.6,-1.2 -2.7,-2.7 z m 4.5,0 v 0 c 0,-1 -0.7,-1.9 -1.8,-1.9 -1,0 -1.8,0.8 -1.8,1.9 v 0 c 0,1 0.7,1.9 1.8,1.8 1.1,0 1.9,-0.8 1.8,-1.8 z"
   id="path76"
   style="fill:#151f6d;fill-opacity:1;stroke-width:0.480337" />
	<path
   class="st0"
   d="m 99.8,69 h 0.9 l 2.8,3.6 V 69 h 0.9 v 5.2 h -0.8 l -2.9,-3.7 v 3.7 h -0.9 z"
   id="path78"
   style="fill:#151f6d;fill-opacity:1;stroke-width:0.480337" />
	<path
   class="st0"
   d="m 108.1,68.9 h 0.8 l 2.3,5.2 h -1 l -0.5,-1.3 h -2.5 l -0.5,1.3 h -0.9 z m 1.3,3.2 -0.9,-2.1 -0.9,2.1 z"
   id="path80"
   style="fill:#151f6d;fill-opacity:1;stroke-width:0.480337" />
	<path
   class="st0"
   d="m 112.7,68.9 h 0.9 v 4.4 h 2.7 v 0.8 h -3.7 z"
   id="path82"
   style="fill:#151f6d;fill-opacity:1;stroke-width:0.480337" />
	<path
   class="st0"
   d="m 117.9,68.9 h 1.9 c 1.6,0 2.8,1.1 2.8,2.6 v 0 c 0,1.5 -1.1,2.6 -2.8,2.6 h -1.9 z m 1.9,4.3 c 1.1,0 1.8,-0.7 1.8,-1.8 v 0 c 0,-1 -0.7,-1.8 -1.8,-1.8 h -1 v 3.5 z"
   id="path84"
   style="fill:#151f6d;fill-opacity:1;stroke-width:0.480337" />
	<path
   class="st0"
   d="m 126.6,73.3 0.6,-0.6 c 0.3,0.4 0.6,0.6 1.1,0.6 0.5,0 0.8,-0.3 0.8,-1 v -3.4 h 0.9 v 3.4 c 0,0.6 -0.2,1.1 -0.5,1.4 -0.3,0.3 -0.7,0.5 -1.3,0.5 -0.7,-0.1 -1.3,-0.5 -1.6,-0.9 z"
   id="path86"
   style="fill:#151f6d;fill-opacity:1;stroke-width:0.480337" />
	<path
   class="st0"
   d="m 131.6,73 h 1 v 1 h -1 z"
   id="path88"
   style="fill:#151f6d;fill-opacity:1;stroke-width:0.480337" />
	<path
   class="st0"
   d="m 138.4,69.6 h -1.7 v -0.8 h 4.2 v 0.8 h -1.7 V 74 h -0.9 z"
   id="path90"
   style="fill:#151f6d;fill-opacity:1;stroke-width:0.480337" />
	<path
   class="st0"
   d="m 142.5,68.7 h 2.3 c 0.7,0 1.2,0.2 1.5,0.5 0.3,0.3 0.4,0.7 0.4,1.1 v 0 c 0,0.9 -0.5,1.4 -1.2,1.6 l 1.4,2 h -1.1 l -1.3,-1.8 h -1.1 v 1.8 h -0.9 z m 2.2,2.6 c 0.7,0 1.1,-0.3 1.1,-0.9 v 0 c 0,-0.6 -0.4,-0.9 -1.1,-0.9 h -1.3 v 1.8 z"
   id="path92"
   style="fill:#151f6d;fill-opacity:1;stroke-width:0.480337" />
	<path
   class="st0"
   d="m 148.4,71.7 v -3 h 0.9 v 3 c 0,1 0.5,1.5 1.3,1.5 0.8,0 1.3,-0.5 1.3,-1.5 v -3 h 0.9 v 3 c 0,1.6 -0.9,2.3 -2.2,2.4 -1.4,-0.1 -2.2,-0.9 -2.2,-2.4 z"
   id="path94"
   style="fill:#151f6d;fill-opacity:1;stroke-width:0.480337" />
	<path
   class="st0"
   d="m 154.6,68.7 h 1 l 1.6,2.5 1.6,-2.5 h 1 v 5.2 h -0.9 v -3.7 l -1.6,2.5 v 0 l -1.6,-2.4 V 74 h -0.9 z"
   id="path96"
   style="fill:#151f6d;fill-opacity:1;stroke-width:0.480337" />
	<path
   class="st0"
   d="m 161.7,68.6 h 2.1 c 1.2,0 2,0.7 2,1.7 v 0 c 0,1.2 -0.9,1.8 -2.1,1.8 h -1 v 1.7 h -0.9 z m 2,2.7 c 0.7,0 1.1,-0.4 1.1,-0.9 v 0 c 0,-0.6 -0.4,-0.9 -1.1,-0.9 h -1.1 v 1.9 z"
   id="path98"
   style="fill:#151f6d;fill-opacity:1;stroke-width:0.480337" />
</g></g>
</svg>
